<?xml version="1.0" standalone="no"?>
<!DOCTYPE svg PUBLIC "-//W3C//DTD SVG 20010904//EN"
 "http://www.w3.org/TR/2001/REC-SVG-20010904/DTD/svg10.dtd">
<svg version="1.0" xmlns="http://www.w3.org/2000/svg"
 width="700.000000pt" height="700.000000pt" viewBox="0 0 700.000000 700.000000"
 preserveAspectRatio="xMidYMid meet">
<metadata>
Created by potrace 1.14, written by Peter Selinger 2001-2017
</metadata>
<g transform="translate(0.000000,700.000000) scale(0.100000,-0.100000)"
fill="#000000" stroke="none">
<path d="M2097 4905 c768 -1152 1399 -2095 1403 -2095 4 0 301 442 661 982
360 541 658 987 662 993 4 5 40 60 80 120 39 61 74 112 77 115 3 3 183 273
400 600 217 327 398 599 403 605 4 5 39 57 76 114 38 58 74 112 80 120 6 9 90
134 186 279 l175 262 -2800 0 -2800 0 1397 -2095z"/>
<path d="M1 3498 l-1 -3498 1574 0 1575 0 -15 36 c-8 20 -19 44 -24 53 -5 9
-39 84 -76 166 -37 83 -78 175 -91 205 -89 199 -108 240 -129 285 -21 47 -178
395 -231 515 -44 99 -51 114 -83 185 -18 39 -61 135 -97 215 -90 202 -102 228
-128 285 -84 186 -224 498 -322 715 -63 140 -127 283 -144 318 -16 35 -29 65
-29 67 0 2 -18 43 -41 92 -52 112 -51 110 -213 473 -75 168 -145 323 -156 345
-15 32 -184 408 -272 605 -11 25 -31 70 -45 100 -14 30 -53 118 -88 195 -34
77 -104 232 -155 345 -51 113 -121 268 -155 345 -35 77 -74 165 -88 195 -20
45 -143 317 -227 505 -28 62 -200 444 -225 500 -12 28 -37 82 -54 120 -17 39
-38 84 -46 100 -12 26 -14 -444 -14 -3467z"/>
<path d="M6846 6657 c-83 -183 -185 -411 -228 -507 -43 -96 -85 -188 -92 -205
-49 -103 -96 -206 -96 -209 0 -3 -16 -40 -36 -83 -42 -92 -49 -108 -107 -238
-25 -55 -56 -125 -70 -155 -14 -30 -34 -75 -45 -100 -11 -25 -64 -142 -117
-260 -53 -118 -126 -280 -162 -360 -36 -80 -73 -163 -83 -185 -10 -22 -42 -92
-70 -155 -28 -63 -69 -153 -90 -200 -36 -80 -159 -352 -203 -450 -11 -25 -33
-74 -49 -109 -26 -57 -203 -451 -265 -591 -14 -30 -33 -73 -43 -95 -10 -22
-27 -60 -38 -85 -11 -25 -34 -74 -50 -110 -26 -57 -45 -100 -97 -215 -8 -16
-36 -79 -63 -140 -27 -60 -59 -130 -70 -155 -21 -46 -125 -278 -292 -650 -50
-113 -100 -223 -110 -245 -10 -22 -51 -112 -90 -200 -39 -88 -81 -180 -92
-205 -32 -70 -246 -544 -293 -650 l-43 -95 1571 -3 c864 -1 1572 -1 1574 1 2
2 2 1575 1 3495 l-3 3491 -149 -332z"/>
</g>
</svg>
